<svg id="Layer_1" data-name="Layer 1" xmlns="http://www.w3.org/2000/svg" viewBox="0 0 510.5 179"><defs><style>.cls-1,.cls-2{fill:none;}.cls-1{stroke:#000;stroke-miterlimit:10;}</style></defs><path class="cls-1" d="M76,51.16h3.82v80.3q0,15.39-2.29,20a8.92,8.92,0,0,1-6.49,5.09,13.65,13.65,0,0,1-3.06.25,38.76,38.76,0,0,1-7.76-1l.89-3.69a33.81,33.81,0,0,0,6.87,1,11.83,11.83,0,0,0,2.3-.25,5.31,5.31,0,0,0,3.81-3.06Q76,145.84,76,125.61ZM75.6,22.22a3.32,3.32,0,0,1,4.7,4.7,3.32,3.32,0,0,1-4.7-4.7Zm25.89,28.94h3.82V87.3q0,17.57,5.09,25.33,5.59,8.52,17.81,8.52,11.58,0,17.18-8.52T151,87.3V51.16h3.82v72.28h-3.56L151,108.68a30.82,30.82,0,0,1-3.18,6Q141.06,125,127.45,125T107,114.66q-5.47-8.4-5.47-27.36Zm101.16-1.52q13.75,0,20.49,10.3,5.34,8.16,5.35,27.36v36.14h-3.82V87.3q0-17.55-5.09-25.32-5.6-8.52-17.69-8.52-11.7,0-17.31,8.52T179,87.3v36.14h-3.82V51.16H179V65.93a31.47,31.47,0,0,1,3.18-6Q188.91,49.64,202.65,49.64Zm72.16,0q17,0,25.06,13.36,1.28,2.16,2.17,4.07l.25-15.91h3.56L305.73,119q0,14.51-5.86,24.3-8,13.36-25.06,13.37t-25.2-13.37l3.31-2q7,11.58,21.89,11.58t21.75-11.58q5.35-8.91,5.35-22.27V107.54a45.11,45.11,0,0,1-2,4.07q-8,13.36-25.06,13.36t-25.2-13.36q-5.85-9.8-5.85-24.31T249.61,63Q257.62,49.64,274.81,49.64Zm0,3.82q-14.9,0-21.89,11.58-5.35,8.89-5.35,22.26t5.35,22.27q7,11.58,21.89,11.58t21.75-11.58q5.35-8.89,5.35-22.27T296.56,65Q289.57,53.46,274.81,53.46Zm74.69-3.82q17.06,0,25.07,13.36,1.28,2.16,2.16,4.07L377,51.16h3.56L380.42,119q0,14.51-5.85,24.3-8,13.36-25.07,13.37t-25.2-13.37l3.31-2q7,11.58,21.89,11.58t21.76-11.58q5.34-8.91,5.34-22.27V107.54a43,43,0,0,1-2,4.07Q366.55,125,349.5,125t-25.2-13.36q-5.85-9.8-5.85-24.31T324.3,63Q332.32,49.64,349.5,49.64Zm0,3.82q-14.89,0-21.89,11.58-5.34,8.89-5.34,22.26t5.34,22.27q7,11.58,21.89,11.58t21.76-11.58q5.34-8.89,5.34-22.27T371.26,65Q364.26,53.46,349.5,53.46Zm73.68-3.82a20.38,20.38,0,0,1,7.63,1.65l-2.16,3.44a18,18,0,0,0-6.49-1.4q-6.87,0-12.09,6.36-8,9.68-8,27.61v36.14h-3.82V51.16h3.82v16a33.48,33.48,0,0,1,5.86-9.93q6-7.38,14.76-7.63Zm21.25-27.42a3.21,3.21,0,0,1,4.58,0,3.22,3.22,0,0,1,0,4.7,3.21,3.21,0,0,1-4.58,0,3.22,3.22,0,0,1,0-4.7Zm.38,28.94h3.82v72.28h-3.82Z" transform="translate(0.3 0.48)"/><rect class="cls-2" width="510.5" height="179"/></svg>