<svg id="Layer_1" data-name="Layer 1" xmlns="http://www.w3.org/2000/svg" viewBox="0 0 952.06 334.26"><defs><style>.cls-1{fill:none;stroke:#000;stroke-miterlimit:10;stroke-width:2px;}</style></defs><path class="cls-1" d="M62.18,41.14H252.55V67.58h-80.2c3.52,29.08,28.2,74.91,74.91,102.23v27.32c-26.44-10.58-71.39-48.47-88.13-89-12.34,37.89-54.64,76.67-92.54,90.77V172.45c50.24-25.56,75.79-77.55,77.56-105.76h-82Zm52,243.24c0-22,22-37.9,45.83-37.9H305.43c19.39,0,39.66,15,39.66,34.37v42.31c0,16.74-14.1,30.84-32.61,30.84h-156c-22.91,0-42.3-15.86-42.3-36.13Zm29.09,26.44c0,20.27,19.38,22,35.25,22h108.4c21.15,0,31.73-6.17,31.73-23.79V297.6c0-20.27-12.34-28.2-33.49-28.2H175c-23.79,0-30.84,10.57-31.72,21.15ZM257.84,106.35h57.28V21.75H344.2V216.52H315.12V132.79H257.84ZM405,287H691.44v27.32H405ZM434.1,46.42H658V73.74c0,59.05-8.81,107.52-15.86,134.85-3.53,13.22-8.81,25.55-12.34,34.37H595.38c27.32-48.48,31.73-128.67,28.2-171H434.1Zm318.15-2.64H916.18v119H786.62v81.08H917.06v22.91H757.54V136.32h132.2V70.22H752.25V43.78ZM981.4,22.63h30.84V353.12H981.4Z" transform="translate(-61.18 -20.75)"/></svg>