<svg id="Layer_1" data-name="Layer 1" xmlns="http://www.w3.org/2000/svg" viewBox="0 0 249.63 18.29"><defs><style>.cls-1{fill:#1d1d1b;}</style></defs><path class="cls-1" d="M130.65,262h.42a6.77,6.77,0,0,0,.8,2.25,2.91,2.91,0,0,0,2.63,1.44,2.09,2.09,0,0,0,1.52-.54,1.82,1.82,0,0,0,.56-1.38,1.85,1.85,0,0,0-.33-1,3.33,3.33,0,0,0-1.13-1l-1.44-.82a8.28,8.28,0,0,1-2.32-1.71,3,3,0,0,1-.75-2,3,3,0,0,1,1-2.37,3.69,3.69,0,0,1,2.58-.92,5,5,0,0,1,1.5.25,7.76,7.76,0,0,0,.92.26.71.71,0,0,0,.34-.06,1,1,0,0,0,.18-.21h.3l.09,3.59h-.39a6.16,6.16,0,0,0-.7-1.94,2.55,2.55,0,0,0-2.3-1.29,1.82,1.82,0,0,0-1.93,1.85c0,.79.59,1.49,1.77,2.11l1.7.91q2.75,1.5,2.74,3.48a3.13,3.13,0,0,1-1.13,2.48,4.46,4.46,0,0,1-3,1,6.55,6.55,0,0,1-1.74-.26,7.57,7.57,0,0,0-1.16-.25.36.36,0,0,0-.27.11,1,1,0,0,0-.18.26h-.33Z" transform="translate(-130.61 -248.05)"/><path class="cls-1" d="M146.22,254.17v.93H143.6l0,7.4a4.94,4.94,0,0,0,.17,1.48,1.2,1.2,0,0,0,1.21.89,1.41,1.41,0,0,0,.8-.22,4.09,4.09,0,0,0,.78-.69l.33.28-.28.39a4.12,4.12,0,0,1-1.41,1.27,3.21,3.21,0,0,1-1.44.37,2,2,0,0,1-2.06-1.35,5.5,5.5,0,0,1-.3-2V255.1H140a.36.36,0,0,1-.09-.08.13.13,0,0,1,0-.1.28.28,0,0,1,.06-.2,3.14,3.14,0,0,1,.37-.33,11.62,11.62,0,0,0,1.28-1.19c.26-.3.87-1.11,1.84-2.41a.64.64,0,0,1,.2,0,.38.38,0,0,1,0,.2v3.16Z" transform="translate(-130.61 -248.05)"/><path class="cls-1" d="M156.05,255.22a4.57,4.57,0,0,1,1.36,3.55h-8.17a6.88,6.88,0,0,0,1.35,4.34,3.77,3.77,0,0,0,2.9,1.36,3.61,3.61,0,0,0,2.27-.7,7,7,0,0,0,1.71-2l.45.16a7.37,7.37,0,0,1-2,3,5,5,0,0,1-3.54,1.39,4.34,4.34,0,0,1-3.74-1.83,7,7,0,0,1-1.32-4.2,6.85,6.85,0,0,1,1.53-4.47,4.9,4.9,0,0,1,4-1.87A4.53,4.53,0,0,1,156.05,255.22Zm-6.16,1a5.07,5.07,0,0,0-.59,1.75h5.42a5.22,5.22,0,0,0-.49-1.91,2.21,2.21,0,0,0-2.11-1.14A2.46,2.46,0,0,0,149.89,256.2Z" transform="translate(-130.61 -248.05)"/><path class="cls-1" d="M161.36,260.36a27.31,27.31,0,0,1,4.72-2.1v-1.09a4.51,4.51,0,0,0-.26-1.83,1.84,1.84,0,0,0-1.81-.86,2.51,2.51,0,0,0-1.25.33,1.08,1.08,0,0,0-.59,1,3.86,3.86,0,0,0,.06.52,2.85,2.85,0,0,1,.07.47,1.06,1.06,0,0,1-.48,1,1.2,1.2,0,0,1-.64.17,1.09,1.09,0,0,1-.89-.38,1.31,1.31,0,0,1-.31-.85,2.68,2.68,0,0,1,1.11-1.88,4.78,4.78,0,0,1,3.26-1,3.52,3.52,0,0,1,3.39,1.62,5.68,5.68,0,0,1,.47,2.58v5.16a3.34,3.34,0,0,0,.11,1,.67.67,0,0,0,.69.5,1.16,1.16,0,0,0,.49-.09,5.36,5.36,0,0,0,.67-.44v.67a4.25,4.25,0,0,1-.89.82,2.56,2.56,0,0,1-1.47.49,1.43,1.43,0,0,1-1.26-.56,2.52,2.52,0,0,1-.43-1.35,13.21,13.21,0,0,1-1.68,1.26,4.39,4.39,0,0,1-2.22.69,2.67,2.67,0,0,1-1.92-.78,2.61,2.61,0,0,1-.81-2A3.65,3.65,0,0,1,161.36,260.36Zm4.72-1.46a12.4,12.4,0,0,0-2.45,1.08,3.2,3.2,0,0,0-1.85,2.6,2,2,0,0,0,.77,1.72,1.89,1.89,0,0,0,1.12.36,3,3,0,0,0,1.63-.47,1.4,1.4,0,0,0,.78-1.21Z" transform="translate(-130.61 -248.05)"/><path class="cls-1" d="M178.18,254.29a4.4,4.4,0,0,1,1,.74v-4.09a2.44,2.44,0,0,0-.17-1.08c-.12-.19-.4-.29-.83-.29h-.27l-.52,0v-.42l1.06-.27,1.15-.32c.39-.12.73-.22,1-.33l.68-.24.08,0,0,1.35c0,.48,0,1,0,1.51s0,1,0,1.53l0,10.51a2.47,2.47,0,0,0,.2,1.17c.14.22.51.33,1.1.33h.28l.28,0v.42l-1.86.64-2,.76-.09-.11v-1.59a6.42,6.42,0,0,1-1.25,1.12,4,4,0,0,1-2.17.58,4.3,4.3,0,0,1-3.54-1.69,6,6,0,0,1-1.36-3.91,7.35,7.35,0,0,1,1.63-4.8,5,5,0,0,1,4-2A3.58,3.58,0,0,1,178.18,254.29Zm.37,10a1.65,1.65,0,0,0,.62-1.12v-5.51a2.8,2.8,0,0,0-.89-2.36,2.89,2.89,0,0,0-1.75-.69A2.83,2.83,0,0,0,174,256a6.52,6.52,0,0,0-.9,3.53,7.1,7.1,0,0,0,1,3.69,3.11,3.11,0,0,0,2.86,1.62A2.21,2.21,0,0,0,178.55,264.29Z" transform="translate(-130.61 -248.05)"/><path class="cls-1" d="M183.9,265.67a3.3,3.3,0,0,0,1.74-.47c.24-.23.36-.84.36-1.85v-6.13a3.8,3.8,0,0,0-.12-1.16.78.78,0,0,0-.81-.53,1.24,1.24,0,0,0-.27,0l-.78.21v-.4l.55-.18c1.5-.49,2.55-.86,3.14-1.11a1.69,1.69,0,0,1,.46-.15.58.58,0,0,1,0,.19v9.23a3,3,0,0,0,.35,1.84,2.65,2.65,0,0,0,1.6.48V266H183.9Zm2-17.2a1.34,1.34,0,0,1,1.89,0,1.32,1.32,0,0,1,0,1.89,1.34,1.34,0,0,1-2.28-.94A1.31,1.31,0,0,1,186,248.47Z" transform="translate(-130.61 -248.05)"/><path class="cls-1" d="M191.18,265.67a2.31,2.31,0,0,0,1.28-.46,2.19,2.19,0,0,0,.37-1.52v-6.54a2.8,2.8,0,0,0-.16-1.14,1,1,0,0,0-1-.49h-.24l-.3,0v-.45c.35-.1,1.18-.37,2.49-.79l1.21-.4c.06,0,.1,0,.11.06a.74.74,0,0,1,0,.18v1.89a13.92,13.92,0,0,1,1.85-1.52,3.86,3.86,0,0,1,2.08-.63,2.69,2.69,0,0,1,1.59.51,4,4,0,0,1,1.39,3.48v6a1.94,1.94,0,0,0,.37,1.33,1.6,1.6,0,0,0,1.23.43V266H198v-.36a2.26,2.26,0,0,0,1.32-.52,2.71,2.71,0,0,0,.37-1.71V258a3.7,3.7,0,0,0-.41-1.83,1.57,1.57,0,0,0-1.51-.73,2.71,2.71,0,0,0-1.53.52,8.37,8.37,0,0,0-1.13,1v7.21a1.52,1.52,0,0,0,.41,1.24,2.3,2.3,0,0,0,1.3.34V266h-5.62Z" transform="translate(-130.61 -248.05)"/><path class="cls-1" d="M213.08,255.22a4.57,4.57,0,0,1,1.36,3.55h-8.16a6.76,6.76,0,0,0,1.35,4.34,3.75,3.75,0,0,0,2.89,1.36,3.66,3.66,0,0,0,2.28-.7,7,7,0,0,0,1.71-2l.45.16a7.3,7.3,0,0,1-2,3,4.93,4.93,0,0,1-3.54,1.39,4.31,4.31,0,0,1-3.73-1.83,7,7,0,0,1-1.32-4.2,6.85,6.85,0,0,1,1.53-4.47,4.9,4.9,0,0,1,4-1.87A4.53,4.53,0,0,1,213.08,255.22Zm-6.16,1a5.29,5.29,0,0,0-.59,1.75h5.43a5.43,5.43,0,0,0-.49-1.91,2.22,2.22,0,0,0-2.11-1.14A2.48,2.48,0,0,0,206.92,256.2Z" transform="translate(-130.61 -248.05)"/><path class="cls-1" d="M216.94,262h.42a7,7,0,0,0,.8,2.25,2.91,2.91,0,0,0,2.63,1.44,2.09,2.09,0,0,0,1.52-.54,1.82,1.82,0,0,0,.56-1.38,1.92,1.92,0,0,0-.32-1,3.48,3.48,0,0,0-1.14-1l-1.43-.82a8.2,8.2,0,0,1-2.33-1.71,3,3,0,0,1-.75-2,3,3,0,0,1,1-2.37,3.71,3.71,0,0,1,2.58-.92,5,5,0,0,1,1.5.25,7.76,7.76,0,0,0,.92.26.71.71,0,0,0,.34-.06,1,1,0,0,0,.18-.21h.3l.09,3.59h-.39a6.16,6.16,0,0,0-.7-1.94,2.55,2.55,0,0,0-2.3-1.29,1.83,1.83,0,0,0-1.93,1.85c0,.79.59,1.49,1.78,2.11l1.69.91q2.74,1.5,2.74,3.48a3.13,3.13,0,0,1-1.13,2.48,4.46,4.46,0,0,1-3,1,6.55,6.55,0,0,1-1.74-.26,7.57,7.57,0,0,0-1.16-.25.36.36,0,0,0-.27.11,1,1,0,0,0-.18.26h-.33Z" transform="translate(-130.61 -248.05)"/><path class="cls-1" d="M227.19,262h.42a6.77,6.77,0,0,0,.8,2.25,2.91,2.91,0,0,0,2.63,1.44,2.09,2.09,0,0,0,1.52-.54,1.82,1.82,0,0,0,.56-1.38,1.92,1.92,0,0,0-.32-1,3.48,3.48,0,0,0-1.14-1l-1.44-.82a8.28,8.28,0,0,1-2.32-1.71,3,3,0,0,1-.75-2,3,3,0,0,1,1-2.37,3.69,3.69,0,0,1,2.58-.92,5,5,0,0,1,1.5.25,7.76,7.76,0,0,0,.92.26.71.71,0,0,0,.34-.06,1,1,0,0,0,.18-.21h.3l.09,3.59h-.39a6.16,6.16,0,0,0-.7-1.94,2.55,2.55,0,0,0-2.3-1.29,1.82,1.82,0,0,0-1.93,1.85c0,.79.59,1.49,1.78,2.11l1.69.91q2.74,1.5,2.74,3.48a3.13,3.13,0,0,1-1.13,2.48,4.46,4.46,0,0,1-3,1,6.55,6.55,0,0,1-1.74-.26,7.57,7.57,0,0,0-1.16-.25.36.36,0,0,0-.27.11,1,1,0,0,0-.18.26h-.33Z" transform="translate(-130.61 -248.05)"/><path class="cls-1" d="M243.16,265.67a3.3,3.3,0,0,0,1.74-.47c.24-.23.36-.84.36-1.85v-6.13a3.8,3.8,0,0,0-.12-1.16.78.78,0,0,0-.81-.53,1.33,1.33,0,0,0-.28,0l-.77.21v-.4l.55-.18c1.5-.49,2.55-.86,3.14-1.11a1.69,1.69,0,0,1,.46-.15.58.58,0,0,1,0,.19v9.23a3,3,0,0,0,.35,1.84,2.65,2.65,0,0,0,1.6.48V266h-6.25Zm2.05-17.2a1.34,1.34,0,0,1,1.89,0,1.34,1.34,0,0,1-.94,2.28,1.33,1.33,0,0,1-1.34-1.33A1.31,1.31,0,0,1,245.21,248.47Z" transform="translate(-130.61 -248.05)"/><path class="cls-1" d="M251.34,262h.42a7,7,0,0,0,.8,2.25,2.92,2.92,0,0,0,2.63,1.44,2.09,2.09,0,0,0,1.52-.54,1.82,1.82,0,0,0,.56-1.38,1.92,1.92,0,0,0-.32-1,3.43,3.43,0,0,0-1.13-1l-1.44-.82a8.35,8.35,0,0,1-2.33-1.71,3,3,0,0,1-.75-2,3,3,0,0,1,1-2.37,3.71,3.71,0,0,1,2.58-.92,5,5,0,0,1,1.5.25,7.76,7.76,0,0,0,.92.26.71.71,0,0,0,.34-.06.63.63,0,0,0,.18-.21h.31l.09,3.59h-.4a5.92,5.92,0,0,0-.7-1.94,2.55,2.55,0,0,0-2.3-1.29,1.83,1.83,0,0,0-1.93,1.85c0,.79.59,1.49,1.78,2.11l1.69.91q2.75,1.5,2.74,3.48a3.13,3.13,0,0,1-1.13,2.48,4.45,4.45,0,0,1-3,1,6.57,6.57,0,0,1-1.75-.26,7.57,7.57,0,0,0-1.16-.25.36.36,0,0,0-.27.11,1,1,0,0,0-.18.26h-.33Z" transform="translate(-130.61 -248.05)"/><path class="cls-1" d="M273.5,254.17v.93h-2.63l0,7.4A4.63,4.63,0,0,0,271,264a1.18,1.18,0,0,0,1.2.89,1.45,1.45,0,0,0,.81-.22,4.42,4.42,0,0,0,.78-.69l.33.28-.28.39a4.14,4.14,0,0,1-1.42,1.27,3.15,3.15,0,0,1-1.44.37,2,2,0,0,1-2.05-1.35,5.5,5.5,0,0,1-.3-2V255.1h-1.4a.29.29,0,0,1-.1-.08.17.17,0,0,1,0-.1.28.28,0,0,1,.06-.2,3.67,3.67,0,0,1,.36-.33,10.75,10.75,0,0,0,1.28-1.19c.26-.3.88-1.11,1.85-2.41a.64.64,0,0,1,.2,0,.38.38,0,0,1,0,.2v3.16Z" transform="translate(-130.61 -248.05)"/><path class="cls-1" d="M274.35,265.67a2.31,2.31,0,0,0,1.38-.52,3.12,3.12,0,0,0,.33-1.8V251a2.33,2.33,0,0,0-.19-1.06c-.12-.23-.43-.34-.91-.34h-.27l-.3,0v-.46l1.39-.41,1.15-.34,1.24-.38,0,.09v7.89a8.22,8.22,0,0,1,1.44-1.36,4.23,4.23,0,0,1,2.45-.77,2.82,2.82,0,0,1,2.84,1.75,6.08,6.08,0,0,1,.41,2.43v5.24a3.32,3.32,0,0,0,.31,1.78,2,2,0,0,0,1.3.54V266h-5.57v-.36a2.47,2.47,0,0,0,1.44-.53,3.17,3.17,0,0,0,.32-1.79v-5.21a4.17,4.17,0,0,0-.42-2,1.62,1.62,0,0,0-1.57-.78,3.18,3.18,0,0,0-1.95.72c-.62.48-.93.8-.93.94v6.34a3.06,3.06,0,0,0,.33,1.8,2.54,2.54,0,0,0,1.43.52V266h-5.67Z" transform="translate(-130.61 -248.05)"/><path class="cls-1" d="M296.49,255.22a4.57,4.57,0,0,1,1.36,3.55h-8.16a6.76,6.76,0,0,0,1.35,4.34,3.75,3.75,0,0,0,2.89,1.36,3.66,3.66,0,0,0,2.28-.7,7,7,0,0,0,1.71-2l.45.16a7.37,7.37,0,0,1-2,3,5,5,0,0,1-3.55,1.39,4.33,4.33,0,0,1-3.73-1.83,7,7,0,0,1-1.32-4.2,6.85,6.85,0,0,1,1.53-4.47,4.9,4.9,0,0,1,4-1.87A4.53,4.53,0,0,1,296.49,255.22Zm-6.16,1a5.29,5.29,0,0,0-.59,1.75h5.43a5.43,5.43,0,0,0-.49-1.91,2.21,2.21,0,0,0-2.11-1.14A2.48,2.48,0,0,0,290.33,256.2Z" transform="translate(-130.61 -248.05)"/><path class="cls-1" d="M308.39,260.36a27.31,27.31,0,0,1,4.72-2.1v-1.09a4.51,4.51,0,0,0-.26-1.83,1.84,1.84,0,0,0-1.81-.86,2.51,2.51,0,0,0-1.25.33,1.06,1.06,0,0,0-.59,1,3.86,3.86,0,0,0,.06.52c0,.24.07.4.07.47a1.06,1.06,0,0,1-.48,1,1.2,1.2,0,0,1-.64.17,1.09,1.09,0,0,1-.89-.38,1.31,1.31,0,0,1-.31-.85,2.68,2.68,0,0,1,1.11-1.88,4.78,4.78,0,0,1,3.26-1,3.52,3.52,0,0,1,3.39,1.62,5.68,5.68,0,0,1,.47,2.58v5.16a3.81,3.81,0,0,0,.1,1,.69.69,0,0,0,.7.5,1.16,1.16,0,0,0,.49-.09,5.36,5.36,0,0,0,.67-.44v.67a4.25,4.25,0,0,1-.89.82,2.56,2.56,0,0,1-1.47.49,1.43,1.43,0,0,1-1.26-.56,2.43,2.43,0,0,1-.43-1.35,13.21,13.21,0,0,1-1.68,1.26,4.39,4.39,0,0,1-2.22.69,2.67,2.67,0,0,1-1.92-.78,2.61,2.61,0,0,1-.81-2A3.65,3.65,0,0,1,308.39,260.36Zm4.72-1.46a12.4,12.4,0,0,0-2.45,1.08,3.2,3.2,0,0,0-1.85,2.6,2,2,0,0,0,.77,1.72,1.89,1.89,0,0,0,1.12.36,3,3,0,0,0,1.63-.47,1.4,1.4,0,0,0,.78-1.21Z" transform="translate(-130.61 -248.05)"/><path class="cls-1" d="M317.72,265.67a2.31,2.31,0,0,0,1.28-.46,2.13,2.13,0,0,0,.37-1.52v-6.54a3,3,0,0,0-.15-1.14,1,1,0,0,0-1-.49H318l-.3,0v-.45c.35-.1,1.19-.37,2.5-.79l1.21-.4a.11.11,0,0,1,.11.06.87.87,0,0,1,0,.18v1.89a13.92,13.92,0,0,1,1.85-1.52,3.86,3.86,0,0,1,2.08-.63,2.69,2.69,0,0,1,1.59.51,4,4,0,0,1,1.39,3.48v6a1.94,1.94,0,0,0,.37,1.33,1.63,1.63,0,0,0,1.24.43V266h-5.49v-.36a2.26,2.26,0,0,0,1.31-.52,2.64,2.64,0,0,0,.37-1.71V258a3.59,3.59,0,0,0-.41-1.83,1.56,1.56,0,0,0-1.51-.73,2.73,2.73,0,0,0-1.53.52,8.37,8.37,0,0,0-1.13,1v7.21a1.52,1.52,0,0,0,.41,1.24,2.3,2.3,0,0,0,1.3.34V266h-5.62Z" transform="translate(-130.61 -248.05)"/><path class="cls-1" d="M331.79,262h.43a6.78,6.78,0,0,0,.79,2.25,2.92,2.92,0,0,0,2.63,1.44,2.09,2.09,0,0,0,1.52-.54,1.82,1.82,0,0,0,.56-1.38,1.92,1.92,0,0,0-.32-1,3.33,3.33,0,0,0-1.13-1l-1.44-.82a8.35,8.35,0,0,1-2.33-1.71,3,3,0,0,1-.75-2,3.07,3.07,0,0,1,1-2.37,3.72,3.72,0,0,1,2.59-.92,5.11,5.11,0,0,1,1.5.25,7.22,7.22,0,0,0,.92.26.69.69,0,0,0,.33-.06.63.63,0,0,0,.18-.21h.31l.09,3.59h-.4a5.93,5.93,0,0,0-.69-1.94,2.56,2.56,0,0,0-2.31-1.29,1.82,1.82,0,0,0-1.41.55,1.86,1.86,0,0,0-.52,1.3c0,.79.6,1.49,1.78,2.11l1.7.91c1.82,1,2.74,2.16,2.74,3.48a3.11,3.11,0,0,1-1.14,2.48,4.45,4.45,0,0,1-3,1,6.57,6.57,0,0,1-1.75-.26,7.56,7.56,0,0,0-1.15-.25.33.33,0,0,0-.27.11.68.68,0,0,0-.18.26h-.34Z" transform="translate(-130.61 -248.05)"/><path class="cls-1" d="M352.92,254.44a4.19,4.19,0,0,0-1.15.26.66.66,0,0,0-.37.68,2.23,2.23,0,0,0,.08.56c.06.2.13.43.23.69l2.34,6.08,2.28-5.56c.1-.24.21-.55.33-.94a3.29,3.29,0,0,0,.18-.88.66.66,0,0,0-.29-.64,2.32,2.32,0,0,0-.86-.25v-.36H359v.36a.88.88,0,0,0-.52.31,5.1,5.1,0,0,0-.58,1.16l-4.12,10.14a.52.52,0,0,1-.09.17.13.13,0,0,1-.11,0c-.11,0-.17-.1-.18-.14l-3.15-7.77-3.14,7.76a.41.41,0,0,1-.07.11.15.15,0,0,1-.11,0c-.11,0-.17-.09-.18-.13l-3.85-9.47a14.38,14.38,0,0,0-.83-1.86,1.23,1.23,0,0,0-.81-.37v-.36H346v.36a2.63,2.63,0,0,0-.91.22c-.21.1-.31.33-.31.69a7.57,7.57,0,0,0,.53,1.84c.2.55.47,1.22.79,2l1.48,3.6,2.27-4.87,0-.15a3.39,3.39,0,0,0-.27-1c-.18-.47-.36-.89-.53-1.26a1.51,1.51,0,0,0-1.5-1.11v-.36h5.37Z" transform="translate(-130.61 -248.05)"/><path class="cls-1" d="M368.89,255.22a4.57,4.57,0,0,1,1.37,3.55h-8.17a6.88,6.88,0,0,0,1.35,4.34,3.77,3.77,0,0,0,2.89,1.36,3.66,3.66,0,0,0,2.28-.7,7,7,0,0,0,1.71-2l.45.16a7.37,7.37,0,0,1-2,3,5,5,0,0,1-3.55,1.39,4.33,4.33,0,0,1-3.73-1.83,7,7,0,0,1-1.32-4.2,6.85,6.85,0,0,1,1.53-4.47,4.9,4.9,0,0,1,4-1.87A4.49,4.49,0,0,1,368.89,255.22Zm-6.16,1a5.29,5.29,0,0,0-.59,1.75h5.43a5.43,5.43,0,0,0-.49-1.91A2.21,2.21,0,0,0,365,254.9,2.48,2.48,0,0,0,362.73,256.2Z" transform="translate(-130.61 -248.05)"/><path class="cls-1" d="M371.49,265.6a3.16,3.16,0,0,0,1.57-.41,1.72,1.72,0,0,0,.39-1.35V258a4.94,4.94,0,0,0-.24-1.82.87.87,0,0,0-.87-.54l-.34,0-.44.08v-.42l1.5-.53,1.06-.39c.43-.16.87-.34,1.32-.55.06,0,.1,0,.11.07a1.31,1.31,0,0,1,0,.27v2.1a10,10,0,0,1,1.59-1.78,2.45,2.45,0,0,1,1.59-.65,1.45,1.45,0,0,1,1.07.4,1.29,1.29,0,0,1,.42,1,1.31,1.31,0,0,1-.32.89,1,1,0,0,1-.79.36,1.46,1.46,0,0,1-1-.45,1.39,1.39,0,0,0-.78-.45q-.45,0-1.11.72a2.28,2.28,0,0,0-.65,1.5v5.8a1.94,1.94,0,0,0,.51,1.54,2.54,2.54,0,0,0,1.71.4V266h-6.34Z" transform="translate(-130.61 -248.05)"/></svg>