<svg id="Layer_1" data-name="Layer 1" xmlns="http://www.w3.org/2000/svg" viewBox="0 0 89.7 11.25"><defs><style>.cls-1{fill:#fff;}</style></defs><path class="cls-1" d="M187.41,109.74c-.37.05-.46.16-.64.16s-1.05-.36-1.05-.48.05,0,.16,0l.29,0h.55a11.54,11.54,0,0,0,1.46-.07,3.23,3.23,0,0,1,.82-.09c.42,0,.55.07.55.16s-.22.29-.29.47a18,18,0,0,1-1.37,3.56l.8,0c.58,0,.39-.24,1-.24l.41,0c.43,0,.66.23.66.39s-.16.24-.45.24h-.15c-.54,0-1.14,0-1.78,0s-1.63,0-2.46.06l0,3.56c0,1.37-.12,1.79-.36,2.16-.07.09-.13.14-.18.14s-.18-.18-.18-.48v-5.36l-2.72.15c-.51.08-.58.22-.8.22s-1.54-.49-1.54-.67.06-.06.15-.06h.18a18.88,18.88,0,0,0,2.68.12,16.3,16.3,0,0,0,.85-3.94l-1,.09a6.66,6.66,0,0,1-.69.2c-.21,0-1-.35-1-.47s0-.06.19-.06l.86,0a11,11,0,0,0,1.14-.06,7.15,7.15,0,0,1,.78-.12c.44,0,.77,0,.77.21s-.11.24-.2.38a17.42,17.42,0,0,1-1.32,3.73c1.22,0,2.62-.07,4.07-.14a19,19,0,0,0,.88-3.83Z" transform="translate(-180.16 -108.62)"/><path class="cls-1" d="M197.09,114.43c-.85,0-2,.06-2.68.11-.48,0-.59.2-.87.2a3.25,3.25,0,0,1-1.56-.66s.05-.06.14-.06a.7.7,0,0,1,.22,0,12,12,0,0,0,1.81.07c1.68,0,4.23-.07,6.64-.17.54,0,.36-.19,1.07-.19.32,0,1,0,1,.36,0,.15-.15.3-.41.3h0c-.72,0-2-.07-3.1-.07-.62,0-1.16,0-1.46,0a9,9,0,0,1-.19,2.8c-.11.32-.25.5-.37.5s-.22-.17-.22-.55Zm1.82-5c.54,0,.41-.11.8-.11s.81,0,.81.15-.28.27-.36.35a11,11,0,0,1-2.27,1.74,8,8,0,0,0,1.94.32c.33,0,.41-.06.61-.06s1.61.2,1.61.66c0,.12-.13.22-.36.22s-3.33-.7-4.22-.91a17.26,17.26,0,0,1-4.64,1.37c-.1,0-.14,0-.14-.05s.1-.1.33-.15a12.36,12.36,0,0,0,6.18-3.26c-.89,0-3,.1-3.72.16-.34.05-.4.15-.55.15s-1.31-.45-1.31-.63,0-.05.13-.05h.18a10.11,10.11,0,0,0,2.11.15C196.83,109.48,198.12,109.42,198.91,109.42Zm-4.22,7.7c0-.23-.29-.35-.9-.53-.13,0-.23-.09-.23-.13s.11-.12.37-.18a9.07,9.07,0,0,1,1.3.08c.21,0,.26.12.26.23s0,.17,0,.3c0,.5,0,1.15,0,1.57s.15.38.55.41l2.58,0c.87-.06.48-.35,1.48-.35.29,0,.95,0,.95.42,0,.14-.12.26-.32.26H196c-.8,0-1.23-.21-1.28-.79Z" transform="translate(-180.16 -108.62)"/><path class="cls-1" d="M209.12,110.79c.7-.13.37-.34,1.35-.35.43,0,.62.18.62.33s-.17.29-.49.29c-1,0-2,.06-2.56.09a.58.58,0,0,1,.18.36c0,.14-.1.21-.14.3,1.33.2,1.95,1,1.95,1.77s-.79,1.75-2.23,1.75-2.29-.89-2.29-1.79.63-1.57,2-1.75a.31.31,0,0,0,.2-.26.57.57,0,0,0-.18-.34,14.08,14.08,0,0,0-1.5.12c-.26,0-.32.13-.46.13a2.48,2.48,0,0,1-1.13-.61s0-.06.16-.06l.24,0a10.36,10.36,0,0,0,1.76.13C207.28,110.92,207.61,110.89,209.12,110.79Zm-1.88-.8a1.93,1.93,0,0,1-1-.67s0-.06.1-.06a1.45,1.45,0,0,1,.29,0,13.45,13.45,0,0,0,2.17.08c.32,0,.5.15.5.28s-.2.27-.66.3Zm-1,3.52a1.58,1.58,0,0,0,3.1,0,1.57,1.57,0,0,0-3.1,0Zm1.48,5.9c0-.4-.1-2-.18-2.63,0-.19,0-.25-.7-.48-.13,0-.26-.08-.26-.14s.11-.11.4-.16a9.68,9.68,0,0,1,1.34.17c.56,0,2.61-.06,3.21-.12.28,0,.14-.13.54-.13s.78,0,.78.18-.16.22-.21.42c-.24,1-.37,1.65-.48,2.08.36.06.51.18.51.29s-.13.17-.34.17c-.81,0-3.23.08-4,.08-.07.47-.24.73-.38.73S207.76,119.73,207.72,119.41Zm3.3-.63a5.09,5.09,0,0,0,.74-.15c0-.55.1-1.68.1-2.27-.66,0-2.53.08-3.44.12-.06.07-.15.06-.15.18l.06,2.16Zm.9-9.17c0-.12-.3-.36-1-.65-.18-.06-.28-.13-.28-.19s.14-.13.43-.15a6.43,6.43,0,0,1,1.26.29c.35.13.43.22.43.34s0,.18,0,.32l0,3.24c.17,0,.29,0,.47,0,.62-.08.32-.34,1.2-.34.24,0,.71,0,.71.32a.32.32,0,0,1-.34.3l-2.05,0c0,1.81-.45,2-.56,2s-.18-.13-.18-.47Z" transform="translate(-180.16 -108.62)"/><path class="cls-1" d="M221.88,113.7a2.28,2.28,0,0,1-2.54,2c-1.78,0-2.77-1.1-2.77-2.3a2.34,2.34,0,0,1,2.27-2.24c.22-.05.44-.11.44-.33a.41.41,0,0,0-.09-.22.38.38,0,0,1-.12-.19s0-.08.12-.08a1,1,0,0,1,.76.46c0,.1-.15.18-.24.33,1.46.33,2.11,1.13,2.18,2.19Zm-4.56-.24a1.82,1.82,0,0,0,2,1.8,1.8,1.8,0,1,0,0-3.6A1.82,1.82,0,0,0,217.32,113.46Zm7.14-3.67c0-.23-.39-.52-1.07-.82-.17-.06-.26-.13-.26-.19s.12-.13.39-.16A6.91,6.91,0,0,1,225,109c.18.07.22.15.22.26s0,.19,0,.33v7.06c0,2.21-.07,2.51-.29,3-.08.15-.16.22-.24.22s-.16-.15-.16-.52Z" transform="translate(-180.16 -108.62)"/><path class="cls-1" d="M239.91,109.61c0-.12-.3-.36-1-.65-.18-.06-.27-.13-.27-.19s.14-.13.43-.15a6.8,6.8,0,0,1,1.26.29c.35.13.43.22.43.34s0,.18,0,.32v3.24c.17,0,.29,0,.47,0,.54-.11.32-.34,1.17-.34.27,0,.73,0,.73.32a.32.32,0,0,1-.33.3l-2.05,0c0,1.33-.43,1.69-.57,1.69s-.18-.13-.18-.48v-1.45a20.8,20.8,0,0,1-5.81,1.74c-.28,0-.56-.44-.6-1l0-2.38c0-.21-.4-.33-1-.53-.12,0-.19-.08-.19-.12s.09-.11.3-.18a9.18,9.18,0,0,1,1.66.15c.81,0,1.41-.07,1.92-.11.75-.06.37-.32,1.48-.32.31,0,.45.14.45.28s-.12.26-.36.27l-3.25.16c-.15,0-.25,0-.25.18,0,.68,0,1.46,0,2,0,.81,0,.9.38.9a20.08,20.08,0,0,0,5.3-1.25Zm-4.21,6.62c0-.18-.33-.35-.75-.46-.15,0-.25-.09-.25-.14s.33-.15.49-.15a5.1,5.1,0,0,1,.78.09c.39.06.47.13.47.25s0,.16,0,.26v.74l3.5,0v-.94c0-.14-.22-.32-.6-.43-.15-.05-.26-.11-.26-.17s.34-.11.41-.11,1.2.11,1.2.36a2.6,2.6,0,0,0,0,.28v2.3c0,.91-.2,1.62-.43,1.62s-.23-.19-.26-.69l-3.55,0c-.12.5-.34.84-.5.84s-.18-.14-.18-.51Zm.71.92v1.54l3.5,0v-1.53Z" transform="translate(-180.16 -108.62)"/><path class="cls-1" d="M249.87,113.7a2.28,2.28,0,0,1-2.54,2c-1.77,0-2.77-1.1-2.77-2.3a2.35,2.35,0,0,1,2.28-2.24c.22-.05.43-.11.43-.33a.4.4,0,0,0-.08-.22.38.38,0,0,1-.12-.19s0-.08.12-.08a1,1,0,0,1,.75.46c0,.1-.14.18-.24.33,1.47.33,2.11,1.13,2.19,2.19Zm-4.55-.24a1.82,1.82,0,0,0,2,1.8,1.8,1.8,0,1,0,0-3.6A1.82,1.82,0,0,0,245.32,113.46Zm7.13-3.67c0-.23-.38-.52-1.06-.82-.17-.06-.27-.13-.27-.19s.12-.13.4-.16A7.3,7.3,0,0,1,253,109c.18.07.22.15.22.26s0,.19,0,.33v7.06c0,2.21-.07,2.51-.29,3-.08.15-.17.22-.24.22s-.17-.15-.17-.52Z" transform="translate(-180.16 -108.62)"/><path class="cls-1" d="M263.91,109.64c0-.2-.66-.49-1.16-.72-.13,0-.22-.1-.22-.15s.15-.13.51-.15a11.73,11.73,0,0,1,1.38.33c.25.09.31.18.31.3s0,.2,0,.38V114h.6c.57-.09.37-.31,1.14-.31.23,0,.73,0,.73.37,0,.17-.14.31-.4.31h-2.08v3.48a4.59,4.59,0,0,1-.3,1.77c-.1.15-.19.22-.28.22s-.18-.16-.18-.55v-4.62a17.89,17.89,0,0,1-5.86,1.83c-.21,0-.58-.45-.58-.94l0-3.87c-.09-.28-.42-.38-1-.61-.09,0-.15,0-.15-.08s.1-.13.38-.19a7.08,7.08,0,0,1,1.72.24,15.54,15.54,0,0,0,1.84-.09c.6-.06.44-.36,1.27-.36.31,0,.83,0,.83.32,0,.13-.14.26-.38.28-1.15.06-2.42.13-3.45.13-.16,0-.25,0-.25.16,0,.56,0,2.35,0,3.35s0,1,.35,1a19.57,19.57,0,0,0,5.37-1.41Z" transform="translate(-180.16 -108.62)"/><path class="cls-1" d="M269.86,118.28a.66.66,0,1,1-1.32,0,.66.66,0,1,1,1.32,0Z" transform="translate(-180.16 -108.62)"/></svg>